<svg viewBox="0 0 512 512" xmlns="http://www.w3.org/2000/svg" fill-rule="evenodd" clip-rule="evenodd" stroke-linejoin="round" stroke-miterlimit="2"><path d="M472.236 229.646a155.498 155.498 0 00-65.982-48.38 152.502 152.502 0 00-41.058-104.098c-26.556-29.722-64.24-47.245-104.082-48.38-81.796-2.478-151.472 61.954-155.405 143.685v8.793C45.53 204.816 5.784 263.253 6.007 327.877 5.192 411.24 72.23 480.9 155.56 483.281a151.064 151.064 0 00101.157-39.586 148.166 148.166 0 0099.702 39.586c82.53-1.566 149.584-69.9 149.584-152.446 0-.991-.016-1.967-.032-2.958a159.936 159.936 0 00-33.719-98.23h-.016zm-265.402 98.231a145.154 145.154 0 0019.058 74.776 98.269 98.269 0 01-70.348 29.323c-57.11 0-104.098-46.99-104.098-104.099 0-57.11 46.989-104.098 104.098-104.098a98.024 98.024 0 0135.174 5.867h1.47l8.794 2.926a23.451 23.451 0 0016.132 7.339 20.53 20.53 0 0017.587-8.794c9.05-10.936 7.739-27.308-2.926-36.66a67.41 67.41 0 00-24.925-13.19 152.487 152.487 0 00-51.322-10.265c7.003-49.707 49.979-87.055 100.166-87.055 51.849 0 95.72 39.858 100.693 91.452v7.338c.591 33.975-15.253 66.207-42.513 86.496-10.152 8.73-12.63 23.614-5.867 35.174a23.47 23.47 0 0020.528 11.735 30.913 30.913 0 0014.662-5.868 153.985 153.985 0 0054.247-77.702c36.677 17.491 60.131 54.663 60.115 95.305.048 55.479-44.27 101.748-99.701 104.099h-1.471c-54.951-.768-99.75-46.19-99.75-101.141 0-.991.016-1.967.048-2.958a26.402 26.402 0 00-7.339-17.587 24.874 24.874 0 00-17.587-7.338c-13.382.72-24.206 11.543-24.925 24.925z" fill="#1e7ae0" fill-rule="nonzero"/></svg>